<?xml version="1.0" encoding="utf-8"?>
<svg viewBox="-47.222 8.6 399.288 63.185" width="399.288" height="63.185" style="background: rgba(0, 0, 0, 0);" xmlns="http://www.w3.org/2000/svg">
  <defs>
    <filter id="editing-extrusion" x="-100%" y="-100%" width="300%" height="300%">
      <feFlood result="color1" flood-color="#ccc"/>
      <feConvolveMatrix order="8,8" divisor="1" kernelMatrix="1 0 0 0 0 0 0 0 0 1 0 0 0 0 0 0 0 0 1 0 0 0 0 0 0 0 0 1 0 0 0 0 0 0 0 0 1 0 0 0 0 0 0 0 0 1 0 0 0 0 0 0 0 0 1 0 0 0 0 0 0 0 0 1" in="SourceAlpha" result="extrude"/>
      <feComposite in="color1" in2="extrude" result="comp-extrude" operator="in"/>
      <feOffset dx="4" dy="4" in="comp-extrude" result="offset-extrude"/>
      <feMerge>
        <feMergeNode in="offset-extrude"/>
        <feMergeNode in="SourceGraphic"/>
      </feMerge>
    </filter>
    <style>text {
  font-size: 64px;
  font-family: Arial Black;
  dominant-baseline: central;
  text-anchor: middle;
}</style>
  </defs>
  <g filter="url(#editing-extrusion)" transform="matrix(1, 0, 0, 1, -99.942039, -46.11462)">
    <g transform="translate(38.79997444152832, 103.73500061035156)">
      <path d="M32.32 8.83L14.40 8.83L14.40-48.64L32.32-48.64L32.32-44.67L18.82-44.67L18.82 4.86L32.32 4.86L32.32 8.83ZM69.12 0L55.62-21.89L49.22-14.34L49.22 0L43.84 0L43.84-44.67L49.22-44.67L49.22-21.38L49.41-21.38L55.30-28.80L68.48-44.67L74.94-44.67L59.26-25.86L75.39 0L69.12 0ZM99.65 0L92.35 0L79.10-44.67L84.80-44.67L91.14-22.34L95.94-5.44L96.26-5.44L101.06-22.34L107.39-44.67L112.90-44.67L99.65 0ZM136.45-40.32L136.45-40.32L136.45-40.32Q134.21-40.32 133.31-41.25L133.31-41.25L133.31-41.25Q132.42-42.18 132.42-43.58L132.42-43.58L132.42-44.61L132.42-44.61Q132.42-46.02 133.31-46.94L133.31-46.94L133.31-46.94Q134.21-47.87 136.45-47.87L136.45-47.87L136.45-47.87Q138.69-47.87 139.58-46.94L139.58-46.94L139.58-46.94Q140.48-46.02 140.48-44.61L140.48-44.61L140.48-43.58L140.48-43.58Q140.48-42.18 139.58-41.25L139.58-41.25L139.58-41.25Q138.69-40.32 136.45-40.32ZM121.98 0L121.98-4.35L133.89-4.35L133.89-28.67L121.98-28.67L121.98-33.02L139.01-33.02L139.01-4.35L150.14-4.35L150.14 0L121.98 0ZM164.99 0L159.87 0L159.87-33.02L164.99-33.02L164.99-27.65L165.25-27.65L165.25-27.65Q165.76-28.86 166.53-29.98L166.53-29.98L166.53-29.98Q167.30-31.10 168.42-31.94L168.42-31.94L168.42-31.94Q169.54-32.77 171.07-33.28L171.07-33.28L171.07-33.28Q172.61-33.79 174.66-33.79L174.66-33.79L174.66-33.79Q179.84-33.79 182.98-30.50L182.98-30.50L182.98-30.50Q186.11-27.20 186.11-21.18L186.11-21.18L186.11 0L180.99 0L180.99-20.29L180.99-20.29Q180.99-24.83 179.01-27.04L179.01-27.04L179.01-27.04Q177.02-29.25 173.18-29.25L173.18-29.25L173.18-29.25Q171.65-29.25 170.18-28.86L170.18-28.86L170.18-28.86Q168.70-28.48 167.55-27.71L167.55-27.71L167.55-27.71Q166.40-26.94 165.70-25.73L165.70-25.73L165.70-25.73Q164.99-24.51 164.99-22.91L164.99-22.91L164.99 0ZM211.78 0.77L211.78 0.77L211.78 0.77Q208.19 0.77 205.34-0.45L205.34-0.45L205.34-0.45Q202.50-1.66 200.48-3.94L200.48-3.94L200.48-3.94Q198.46-6.21 197.38-9.38L197.38-9.38L197.38-9.38Q196.29-12.54 196.29-16.45L196.29-16.45L196.29-16.45Q196.29-20.42 197.41-23.62L197.41-23.62L197.41-23.62Q198.53-26.82 200.51-29.09L200.51-29.09L200.51-29.09Q202.50-31.36 205.28-32.58L205.28-32.58L205.28-32.58Q208.06-33.79 211.46-33.79L211.46-33.79L211.46-33.79Q214.78-33.79 217.50-32.58L217.50-32.58L217.50-32.58Q220.22-31.36 222.14-29.22L222.14-29.22L222.14-29.22Q224.06-27.07 225.09-24.13L225.09-24.13L225.09-24.13Q226.11-21.18 226.11-17.66L226.11-17.66L226.11-15.23L201.66-15.23L201.66-13.70L201.66-13.70Q201.66-11.52 202.37-9.66L202.37-9.66L202.37-9.66Q203.07-7.81 204.38-6.46L204.38-6.46L204.38-6.46Q205.70-5.12 207.58-4.38L207.58-4.38L207.58-4.38Q209.47-3.65 211.78-3.65L211.78-3.65L211.78-3.65Q215.10-3.65 217.54-5.18L217.54-5.18L217.54-5.18Q219.97-6.72 221.25-9.41L221.25-9.41L225.02-6.85L225.02-6.85Q223.55-3.52 220.13-1.38L220.13-1.38L220.13-1.38Q216.70 0.77 211.78 0.77ZM211.46-29.57L211.46-29.57L211.46-29.57Q209.34-29.57 207.55-28.80L207.55-28.80L207.55-28.80Q205.76-28.03 204.45-26.69L204.45-26.69L204.45-26.69Q203.14-25.34 202.40-23.52L202.40-23.52L202.40-23.52Q201.66-21.70 201.66-19.52L201.66-19.52L201.66-19.07L220.61-19.07L220.61-19.78L220.61-19.78Q220.61-21.95 219.94-23.74L219.94-23.74L219.94-23.74Q219.26-25.54 218.08-26.85L218.08-26.85L218.08-26.85Q216.90-28.16 215.20-28.86L215.20-28.86L215.20-28.86Q213.50-29.57 211.46-29.57ZM249.98 0.77L249.98 0.77L249.98 0.77Q244.80 0.77 241.06-0.99L241.06-0.99L241.06-0.99Q237.31-2.75 234.69-5.70L234.69-5.70L238.14-8.70L238.14-8.70Q240.51-6.21 243.33-4.86L243.33-4.86L243.33-4.86Q246.14-3.52 250.11-3.52L250.11-3.52L250.11-3.52Q253.95-3.52 256.42-4.90L256.42-4.90L256.42-4.90Q258.88-6.27 258.88-9.22L258.88-9.22L258.88-9.22Q258.88-10.50 258.40-11.36L258.40-11.36L258.40-11.36Q257.92-12.22 257.09-12.74L257.09-12.74L257.09-12.74Q256.26-13.25 255.23-13.54L255.23-13.54L255.23-13.54Q254.21-13.82 253.06-14.02L253.06-14.02L247.87-14.78L247.87-14.78Q246.14-15.04 244.13-15.49L244.13-15.49L244.13-15.49Q242.11-15.94 240.45-16.93L240.45-16.93L240.45-16.93Q238.78-17.92 237.66-19.58L237.66-19.58L237.66-19.58Q236.54-21.25 236.54-23.94L236.54-23.94L236.54-23.94Q236.54-26.43 237.54-28.26L237.54-28.26L237.54-28.26Q238.53-30.08 240.32-31.33L240.32-31.33L240.32-31.33Q242.11-32.58 244.54-33.18L244.54-33.18L244.54-33.18Q246.98-33.79 249.86-33.79L249.86-33.79L249.86-33.79Q254.34-33.79 257.63-32.38L257.63-32.38L257.63-32.38Q260.93-30.98 263.30-28.48L263.30-28.48L259.97-25.34L259.97-25.34Q259.39-26.05 258.53-26.78L258.53-26.78L258.53-26.78Q257.66-27.52 256.42-28.13L256.42-28.13L256.42-28.13Q255.17-28.74 253.50-29.12L253.50-29.12L253.50-29.12Q251.84-29.50 249.66-29.50L249.66-29.50L249.66-29.50Q245.76-29.50 243.68-28.16L243.68-28.16L243.68-28.16Q241.60-26.82 241.60-24.26L241.60-24.26L241.60-24.26Q241.60-22.98 242.08-22.11L242.08-22.11L242.08-22.11Q242.56-21.25 243.39-20.74L243.39-20.74L243.39-20.74Q244.22-20.22 245.28-19.94L245.28-19.94L245.28-19.94Q246.34-19.65 247.42-19.46L247.42-19.46L252.61-18.69L252.61-18.69Q254.40-18.43 256.38-17.98L256.38-17.98L256.38-17.98Q258.37-17.54 260.03-16.54L260.03-16.54L260.03-16.54Q261.70-15.55 262.82-13.89L262.82-13.89L262.82-13.89Q263.94-12.22 263.94-9.54L263.94-9.54L263.94-9.54Q263.94-4.61 260.13-1.92L260.13-1.92L260.13-1.92Q256.32 0.77 249.98 0.77ZM274.88 0L274.88-44.67L287.36-44.67L287.36-44.67Q295.55-44.67 299.58-39.04L299.58-39.04L299.58-39.04Q303.62-33.41 303.62-22.34L303.62-22.34L303.62-22.34Q303.62-11.26 299.58-5.63L299.58-5.63L299.58-5.63Q295.55 0 287.36 0L287.36 0L274.88 0ZM280.26-4.67L287.10-4.67L287.10-4.67Q292.48-4.67 295.20-8.38L295.20-8.38L295.20-8.38Q297.92-12.10 297.92-18.88L297.92-18.88L297.92-25.79L297.92-25.79Q297.92-32.58 295.20-36.29L295.20-36.29L295.20-36.29Q292.48-40 287.10-40L287.10-40L280.26-40L280.26-4.67ZM326.98 0.77L326.98 0.77L326.98 0.77Q323.39 0.77 320.54-0.45L320.54-0.45L320.54-0.45Q317.70-1.66 315.68-3.94L315.68-3.94L315.68-3.94Q313.66-6.21 312.58-9.38L312.58-9.38L312.58-9.38Q311.49-12.54 311.49-16.45L311.49-16.45L311.49-16.45Q311.49-20.42 312.61-23.62L312.61-23.62L312.61-23.62Q313.73-26.82 315.71-29.09L315.71-29.09L315.71-29.09Q317.70-31.36 320.48-32.58L320.48-32.58L320.48-32.58Q323.26-33.79 326.66-33.79L326.66-33.79L326.66-33.79Q329.98-33.79 332.70-32.58L332.70-32.58L332.70-32.58Q335.42-31.36 337.34-29.22L337.34-29.22L337.34-29.22Q339.26-27.07 340.29-24.13L340.29-24.13L340.29-24.13Q341.31-21.18 341.31-17.66L341.31-17.66L341.31-15.23L316.86-15.23L316.86-13.70L316.86-13.70Q316.86-11.52 317.57-9.66L317.57-9.66L317.57-9.66Q318.27-7.81 319.58-6.46L319.58-6.46L319.58-6.46Q320.90-5.12 322.78-4.38L322.78-4.38L322.78-4.38Q324.67-3.65 326.98-3.65L326.98-3.65L326.98-3.65Q330.30-3.65 332.74-5.18L332.74-5.18L332.74-5.18Q335.17-6.72 336.45-9.41L336.45-9.41L340.22-6.85L340.22-6.85Q338.75-3.52 335.33-1.38L335.33-1.38L335.33-1.38Q331.90 0.77 326.98 0.77ZM326.66-29.57L326.66-29.57L326.66-29.57Q324.54-29.57 322.75-28.80L322.75-28.80L322.75-28.80Q320.96-28.03 319.65-26.69L319.65-26.69L319.65-26.69Q318.34-25.34 317.60-23.52L317.60-23.52L317.60-23.52Q316.86-21.70 316.86-19.52L316.86-19.52L316.86-19.07L335.81-19.07L335.81-19.78L335.81-19.78Q335.81-21.95 335.14-23.74L335.14-23.74L335.14-23.74Q334.46-25.54 333.28-26.85L333.28-26.85L333.28-26.85Q332.10-28.16 330.40-28.86L330.40-28.86L330.40-28.86Q328.70-29.57 326.66-29.57ZM368.06 0L361.54 0L349.70-33.02L354.88-33.02L359.62-19.20L364.74-4.29L364.99-4.29L370.11-19.20L374.85-33.02L379.90-33.02L368.06 0ZM390.08-48.64L408.00-48.64L408.00 8.83L390.08 8.83L390.08 4.86L403.58 4.86L403.58-44.67L390.08-44.67L390.08-48.64Z" 
      fill="#222"/>
    </g>
  </g>
</svg>